<svg xmlns="http://www.w3.org/2000/svg" xmlns:xlink="http://www.w3.org/1999/xlink" contentStyleType="text/css" data-diagram-type="DESCRIPTION" height="194px" preserveAspectRatio="none" style="width:891px;height:194px;background:#FFFFFF;" version="1.1" viewBox="0 0 891 194" width="891px" zoomAndPan="magnify"><title>jawira/entity-draw</title><defs/><g><text fill="#000000" font-family="sans-serif" font-size="14" font-weight="bold" lengthAdjust="spacing" textLength="145.332" x="366.0348" y="22.9951">jawira/entity-draw</text><g id="elem_setup"><ellipse cx="84.8218" cy="57.8616" fill="#FFFECC" rx="39.3018" ry="14.5647" style="stroke:#333333;stroke-width:2;"/><text fill="#000000" font-family="sans-serif" font-size="14" lengthAdjust="spacing" textLength="39.1563" x="63.0826" y="61.3967">setup</text></g><g id="elem_composer:install"><ellipse cx="84.8174" cy="168.7904" fill="#FFFECC" rx="78.8174" ry="18.1635" style="stroke:#333333;stroke-width:2;"/><text fill="#000000" font-family="sans-serif" font-size="14" lengthAdjust="spacing" textLength="115.6367" x="24.8755" y="172.3023">composer:install</text></g><g id="elem_qa"><ellipse cx="465.8155" cy="57.8605" fill="#FFFECC" rx="23.8355" ry="14.5236" style="stroke:#333333;stroke-width:2;"/><text fill="#000000" font-family="sans-serif" font-size="14" lengthAdjust="spacing" textLength="17.4658" x="457.0826" y="60.7072">qa</text></g><g id="elem_composer:validate"><ellipse cx="283.815" cy="168.7839" fill="#FFFECC" rx="84.835" ry="19.367" style="stroke:#333333;stroke-width:2;"/><text fill="#000000" font-family="sans-serif" font-size="14" lengthAdjust="spacing" textLength="129.9443" x="218.8429" y="171.6306">composer:validate</text></g><g id="elem_psalm:run"><ellipse cx="465.8198" cy="168.7868" fill="#FFFECC" rx="62.2498" ry="14.85" style="stroke:#333333;stroke-width:2;"/><text fill="#000000" font-family="sans-serif" font-size="14" lengthAdjust="spacing" textLength="70.5059" x="427.5669" y="172.5344">psalm:run</text></g><g id="elem_cs:check"><ellipse cx="618.82" cy="168.7848" fill="#FFFECC" rx="55.36" ry="14.7379" style="stroke:#333333;stroke-width:2;"/><text fill="#000000" font-family="sans-serif" font-size="14" lengthAdjust="spacing" textLength="60.6963" x="585.4719" y="172.5324">cs:check</text></g><g id="elem_help"><ellipse cx="742.8245" cy="57.8606" fill="#FFFECC" rx="32.8845" ry="14.5237" style="stroke:#333333;stroke-width:2;"/><text fill="#000000" font-family="sans-serif" font-size="14" lengthAdjust="spacing" textLength="30.2627" x="727.6121" y="60.7385">help</text></g><g id="elem_map"><ellipse cx="742.8209" cy="168.7913" fill="#FFFECC" rx="33.4809" ry="14.5244" style="stroke:#333333;stroke-width:2;"/><text fill="#000000" font-family="sans-serif" font-size="14" lengthAdjust="spacing" textLength="31.1035" x="727.0139" y="171.7345">map</text></g><g id="elem_cs:fix"><ellipse cx="847.8158" cy="57.8542" fill="#FFFECC" rx="37.5858" ry="14.5473" style="stroke:#333333;stroke-width:2;"/><text fill="#000000" font-family="sans-serif" font-size="14" lengthAdjust="spacing" textLength="36.8115" x="827.8453" y="61.2233">cs:fix</text></g><!--link setup to composer:install--><g id="link_setup_composer:install"><path d="M84.82,72.6569 C84.82,92.3469 84.82,122.5269 84.82,144.1469 " fill="#FFFFFF" fill-opacity="0.00000" id="setup-to-composer:install" style="stroke:#1A85FF;stroke-width:2;"/><polygon fill="#1A85FF" points="84.82,150.1469,88.82,141.1469,84.82,145.1469,80.82,141.1469,84.82,150.1469" style="stroke:#1A85FF;stroke-width:2;"/><text fill="#000000" font-family="sans-serif" font-size="13" lengthAdjust="spacing" textLength="61.6421" x="85.82" y="115.4938">depend:1</text></g><!--link qa to composer:validate--><g id="link_qa_composer:validate"><path d="M449.35,68.7169 C418.54,87.1569 357.008,123.985 318.338,147.135 " fill="#FFFFFF" fill-opacity="0.00000" id="qa-to-composer:validate" style="stroke:#1A85FF;stroke-width:2;"/><polygon fill="#1A85FF" points="313.19,150.2169,322.9666,149.0261,317.48,147.6486,318.8574,142.162,313.19,150.2169" style="stroke:#1A85FF;stroke-width:2;"/><text fill="#000000" font-family="sans-serif" font-size="13" lengthAdjust="spacing" textLength="61.6421" x="392.82" y="115.4938">depend:1</text></g><!--link qa to psalm:run--><g id="link_qa_psalm:run"><path d="M465.82,72.6569 C465.82,93.4969 465.82,126.7869 465.82,147.7569 " fill="#FFFFFF" fill-opacity="0.00000" id="qa-to-psalm:run" style="stroke:#1A85FF;stroke-width:2;"/><polygon fill="#1A85FF" points="465.82,153.7569,469.82,144.7569,465.82,148.7569,461.82,144.7569,465.82,153.7569" style="stroke:#1A85FF;stroke-width:2;"/><text fill="#000000" font-family="sans-serif" font-size="13" lengthAdjust="spacing" textLength="61.6421" x="466.82" y="115.4938">depend:2</text></g><!--link qa to cs:check--><g id="link_qa_cs:check"><path d="M482.83,68.5069 C497.45,76.9769 518.94,89.8869 536.82,102.4269 C560.81,119.2569 582.474,136.898 598.654,150.548 " fill="#FFFFFF" fill-opacity="0.00000" id="qa-to-cs:check" style="stroke:#1A85FF;stroke-width:2;"/><polygon fill="#1A85FF" points="603.24,154.4169,598.9403,145.5562,599.4183,151.1928,593.7817,151.6708,603.24,154.4169" style="stroke:#1A85FF;stroke-width:2;"/><text fill="#000000" font-family="sans-serif" font-size="13" lengthAdjust="spacing" textLength="61.6421" x="557.82" y="115.4938">depend:3</text></g><!--link help to map--><g id="link_help_map"><path d="M742.82,72.6569 C742.82,93.6069 742.82,127.2169 742.82,148.1069 " fill="#FFFFFF" fill-opacity="0.00000" id="help-to-map" style="stroke:#D41159;stroke-width:2;"/><polygon fill="#D41159" points="742.82,154.1069,746.82,145.1069,742.82,149.1069,738.82,145.1069,742.82,154.1069" style="stroke:#D41159;stroke-width:2;"/><text fill="#000000" font-family="sans-serif" font-size="13" lengthAdjust="spacing" textLength="34.9883" x="743.82" y="115.4938">call:1</text></g><!--SRC=[XP2nJiCm48RtUmfBNTAXGccf11cGsa1U09WGms5V6nF7P-mhWRUdJJf4fGLFblxF_trdiU88th6p4Q_8YvNlcOdO0NcZf0z1E2XXzSOYt2fZ8scnx05IOtt0YArwhD5mP_rMRT0b6YMh6Bchs4l9ZgDQEzJDQVnKMzruIadDHz5peX8JhVSFjf5ttWmDawgg7iho3CZHK3n2Y_vSWluSU2eBa2MINPYgsSiaNzqig-frTgSopMtWHB6mFWawDrM5CXJs7rVaa7tWHVuJdJKezD-3aD2rHTpv4JW_svmANPDkHjm2ifhSu7n_dUVBsvviCHmWlTSzp1pswYlXzpvmHXb6LiSHqBV2mM9ZluRBeFC3]--></g></svg>